<svg width="105" height="105" viewBox="0 0 105 105" fill="none" xmlns="http://www.w3.org/2000/svg">
<g clip-path="url(#clip0)">
<path d="M101.739 79.0923L104.657 84.9705C105.463 86.5937 104.8 88.5626 103.177 89.3684L89.7514 96.1126C86.4601 97.7464 82.4596 96.3574 80.8943 93.0251L68.0201 65.625H39.375C36.1091 65.625 33.3404 63.2236 32.8783 59.9905C25.9286 11.3425 26.3279 14.3645 26.25 13.125C26.25 5.66881 32.4676 -0.335265 40.0009 0.014598C46.8241 0.331444 52.3154 5.94238 52.4953 12.7707C52.6733 19.5245 47.7473 25.1621 41.2964 26.1087L42.2541 32.8127H68.9062C70.7185 32.8127 72.1875 34.2817 72.1875 36.094V42.6565C72.1875 44.4688 70.7185 45.9377 68.9062 45.9377H44.1291L45.0667 52.5002H72.1875C73.4334 52.5003 74.6536 52.855 75.7054 53.5229C76.7572 54.1908 77.5971 55.1444 78.127 56.272L89.922 81.375L97.3413 77.6121C98.9645 76.8063 100.934 77.4691 101.739 79.0923ZM63.8527 72.1875H58.8271C57.2299 83.3036 47.6446 91.875 36.0937 91.875C23.4287 91.875 13.125 81.5713 13.125 68.9063C13.125 60.3945 17.779 52.9494 24.6758 48.9817C23.9146 43.6569 23.2723 39.1667 22.73 35.3783C9.42457 40.7007 0 53.7229 0 68.9063C0 88.8085 16.1915 105 36.0937 105C50.8327 105 63.5344 96.1185 69.1339 83.4275L63.8527 72.1875Z" fill="black" fill-opacity="0.25"/>
</g>
<defs>
<clipPath id="clip0">
<rect width="105" height="105" fill="white"/>
</clipPath>
</defs>
</svg>
