<svg width="135" height="135" viewBox="0 0 135 135" fill="none" xmlns="http://www.w3.org/2000/svg">
<path d="M95.625 33.75C101.838 33.75 106.875 28.7132 106.875 22.5C106.875 16.2868 101.838 11.25 95.625 11.25C89.4118 11.25 84.375 16.2868 84.375 22.5C84.375 28.7132 89.4118 33.75 95.625 33.75Z" fill="black" fill-opacity="0.32"/>
<path d="M88.7456 61.7006C90.0369 63.6248 91.8891 65.105 94.0507 65.9402C96.2122 66.7755 98.5785 66.9253 100.828 66.3694L119.481 61.7062L116.764 50.7937L98.1112 55.4569L90.3544 43.83C88.6971 41.3469 86.125 39.6201 83.1994 39.0262L61.5656 34.695C59.1454 34.2093 56.6326 34.5339 54.4153 35.6186C52.198 36.7034 50.3995 38.488 49.2975 40.6969L39.9713 59.3494L50.0344 64.3837L59.3606 45.7256L70.425 47.9419L41.8162 95.625H16.875V106.875H41.8162C45.7425 106.875 49.4381 104.782 51.4631 101.413L62.2519 83.4356L91.3275 89.2519L101.543 119.902L112.207 116.342L101.998 85.6969C101.368 83.8154 100.253 82.1333 98.7661 80.8199C97.2789 79.5065 95.4718 78.6082 93.5269 78.2156L76.4325 74.8012L86.4 58.185L88.7456 61.7006Z" fill="black" fill-opacity="0.32"/>
</svg>
