<svg width="1413" height="930" viewBox="0 0 1413 930" fill="none" xmlns="http://www.w3.org/2000/svg">
<path d="M163 159.5C163 229.085 100.965 287 22.5 287C-55.9655 287 -118 229.085 -118 159.5C-118 89.9148 -55.9655 32 22.5 32C100.965 32 163 89.9148 163 159.5Z" stroke="#83CBE0" stroke-width="20"/>
<path d="M1387 121.5C1387 183.95 1340.95 233 1286 233C1231.05 233 1185 183.95 1185 121.5C1185 59.0504 1231.05 10 1286 10C1340.95 10 1387 59.0504 1387 121.5Z" stroke="#83CBE0" stroke-width="20"/>
<g filter="url(#filter0_f)">
<circle cx="1327.5" cy="340.5" r="71.5" stroke="#46A3C8" stroke-width="20"/>
</g>
<circle cx="848.5" cy="848.5" r="71.5" stroke="#46A3C8" stroke-width="20"/>
<defs>
<filter id="filter0_f" x="1242" y="255" width="171" height="171" filterUnits="userSpaceOnUse" color-interpolation-filters="sRGB">
<feFlood flood-opacity="0" result="BackgroundImageFix"/>
<feBlend mode="normal" in="SourceGraphic" in2="BackgroundImageFix" result="shape"/>
<feGaussianBlur stdDeviation="2" result="effect1_foregroundBlur"/>
</filter>
</defs>
</svg>
