<svg width="86" height="86" viewBox="0 0 86 86" fill="none" xmlns="http://www.w3.org/2000/svg">
<path d="M30.1002 60.2H21.5002C20.7087 60.2 20.0669 60.8417 20.0669 61.6333V70.2333C20.0669 71.0248 20.7087 71.6666 21.5002 71.6666H30.1002C30.8918 71.6666 31.5336 71.0248 31.5336 70.2333V61.6333C31.5336 60.8417 30.8918 60.2 30.1002 60.2ZM28.6669 68.8H22.9336V63.0666H28.6669V68.8Z" fill="#5D62B5"/>
<path d="M50.1666 44.4333H35.8332C34.2501 44.4333 32.9666 45.7169 32.9666 47.3V53.0333C32.9666 54.6165 34.2501 55.9 35.8332 55.9H50.1666C51.7497 55.9 53.0332 54.6165 53.0332 53.0333V47.3C53.0332 45.7169 51.7497 44.4333 50.1666 44.4333ZM50.1666 48.7333H44.4332V47.3H50.1666V48.7333ZM41.5666 47.3V48.7333H35.8332V47.3H41.5666ZM35.8332 51.6H41.5666V53.0333H35.8332V51.6ZM44.4332 53.0333V51.6H50.1666V53.0333H44.4332Z" fill="#5D62B5"/>
<path d="M78.7088 73.1987C78.3518 71.314 77.2544 69.6504 75.6608 68.5817C74.0679 67.5123 72.1132 67.1259 70.2333 67.5102V42.1602L72.8033 44.7301C74.5501 46.477 77.3832 46.477 79.1301 44.7301C80.8769 42.9832 80.8769 40.1502 79.1301 38.4033L70.2333 29.5065V11.4667C71.8164 11.4667 73.1 10.1831 73.1 8.60003V5.73337C73.1 4.15026 71.8164 2.8667 70.2333 2.8667H55.9C54.3169 2.8667 53.0333 4.15026 53.0333 5.73337V8.60003C53.0333 10.1831 54.3169 11.4667 55.9 11.4667V15.1732L46.0402 5.31344C44.3389 3.68975 41.6611 3.68975 39.9598 5.31344L6.86992 38.4033C5.12305 40.1502 5.12305 42.9832 6.86992 44.7301C8.6168 46.477 11.4499 46.477 13.1967 44.7301L15.7667 42.1602V72.214C14.206 70.4034 11.6815 69.7568 9.44264 70.5945C7.20306 71.4315 5.72284 73.5759 5.73333 75.9667C2.56712 75.9667 0 78.5338 0 81.7C0 82.4916 0.64178 83.1334 1.43333 83.1334H84.5667C85.3582 83.1334 86 82.4916 86 81.7C85.9944 77.4574 82.901 73.8503 78.7088 73.1987V73.1987ZM65.9221 70.2922C65.9221 70.2719 65.9333 70.2551 65.9333 70.2334V61.6334C65.9333 60.8418 65.2916 60.2 64.5 60.2H55.9C55.1084 60.2 54.4667 60.8418 54.4667 61.6334V70.2334C54.4667 71.0249 55.1084 71.6667 55.9 71.6667H64.5C64.7611 71.6597 65.0151 71.5799 65.2328 71.4357C64.7568 72.3995 64.5063 73.4591 64.5 74.5334V74.6768C61.6914 75.2584 59.4987 77.4567 58.9241 80.2667H53.0333V58.7667C53.0333 57.9751 52.3916 57.3334 51.6 57.3334H34.4C33.6084 57.3334 32.9667 57.9751 32.9667 58.7667V80.2667H24.2393C23.7137 77.1936 21.57 74.644 18.6333 73.599V40.1334H67.3667V68.8371C66.8173 69.2501 66.3309 69.74 65.9221 70.2922ZM63.0667 63.0667V68.8H57.3333V63.0667H63.0667ZM55.9 5.73337H70.2333V8.60003H55.9V5.73337ZM58.7667 11.4667H67.3667V26.6399L58.7667 18.0399V11.4667ZM11.1699 42.7033C10.5421 43.3311 9.52453 43.3311 8.89674 42.7033C8.26896 42.0755 8.26896 41.0579 8.89674 40.4301L41.9866 7.34027C42.5465 6.78037 43.4535 6.78037 44.0134 7.34027L77.1032 40.4301C77.731 41.0579 77.731 42.0755 77.1032 42.7033C76.4755 43.3311 75.4579 43.3311 74.8301 42.7033L46.0402 13.9134C44.3612 12.2345 41.6388 12.2345 39.9598 13.9134L11.1699 42.7033ZM41.9866 15.9403C42.5465 15.3804 43.4535 15.3804 44.0134 15.9403L65.3398 37.2667H20.6602L41.9866 15.9403ZM3.25229 80.2667C4.00675 78.967 5.64025 78.4743 6.9875 79.1399C7.5383 79.4115 8.20037 79.3023 8.63429 78.8677C9.06891 78.4337 9.17809 77.7717 8.90654 77.2209C8.70918 76.8317 8.6042 76.4027 8.6 75.9667C8.5937 74.5677 9.60151 73.3709 10.981 73.1385C12.3604 72.9062 13.7048 73.7068 14.157 75.031C14.3648 75.6266 14.938 76.0171 15.5686 75.9912C15.6358 75.9919 15.7023 75.9835 15.7667 75.9667C18.38 75.9709 20.6616 77.7374 21.3194 80.2667H3.25229ZM35.8333 80.2667V60.2H50.1667V80.2667H35.8333ZM61.8783 80.2667C62.4662 78.5723 64.0514 77.4266 65.8444 77.4C65.8934 77.4 66.0362 77.4217 66.0852 77.4231C66.5387 77.4364 66.9726 77.2391 67.2603 76.8884C67.5458 76.5336 67.6452 76.064 67.5283 75.6245C67.4269 75.2689 67.373 74.9022 67.3667 74.5334C67.3667 72.1587 69.292 70.2334 71.6667 70.2334C74.0413 70.2334 75.9667 72.1587 75.9667 74.5334C75.9667 75.3249 76.6084 75.9667 77.4 75.9667C80.0133 75.9709 82.2949 77.7374 82.9528 80.2667H61.8783Z" fill="#5D62B5"/>
<path d="M40.1331 64.5H37.2664V67.3667H38.6998V70.2333H37.2664V73.1H40.1331C40.9246 73.1 41.5664 72.4582 41.5664 71.6667V65.9333C41.5664 65.1418 40.9246 64.5 40.1331 64.5Z" fill="#5D62B5"/>
</svg>
