<svg width="60" height="60" viewBox="0 0 60 60" fill="none" xmlns="http://www.w3.org/2000/svg">
<path d="M42.1212 12.5448C44.376 12.5448 46.2 10.6692 46.2 8.35081C46.2 6.04681 44.3748 4.17001 42.1212 4.17001C39.8832 4.17001 38.0568 6.04561 38.0568 8.35081C38.0568 10.6692 39.882 12.5448 42.1212 12.5448ZM45.1524 13.4832H39.2112L29.0856 3.06601C28.9011 2.86218 28.6771 2.69804 28.4271 2.58358C28.1772 2.46912 27.9066 2.40674 27.6317 2.40023C27.3569 2.39372 27.0836 2.44321 26.8285 2.54571C26.5735 2.6482 26.3419 2.80155 26.148 2.99641C25.7463 3.39191 25.5137 3.92774 25.4989 4.49123C25.4841 5.05473 25.6884 5.602 26.0688 6.01801L36.6504 16.9176V53.04C36.6504 54.3504 37.6704 55.398 38.9304 55.398C40.2048 55.398 41.2236 54.3504 41.2236 53.04V33.4476H43.074L43.0884 53.0412C43.0884 54.3516 44.1204 55.3992 45.3804 55.3992C46.644 55.3992 47.6616 54.3516 47.6616 53.0412L47.6484 16.92L58.2312 6.02041C58.6107 5.60383 58.8142 5.05649 58.799 4.49317C58.7837 3.92985 58.551 3.3943 58.1496 2.99881C57.9558 2.80379 57.7242 2.65031 57.4691 2.54771C57.214 2.44512 56.9407 2.39557 56.6658 2.40208C56.3909 2.4086 56.1203 2.47104 55.8703 2.5856C55.6204 2.70015 55.3964 2.86443 55.212 3.06841L45.1524 13.4832ZM23.6256 29.4192C23.3176 29.0917 22.9457 28.8309 22.5329 28.653C22.1201 28.4751 21.6751 28.3838 21.2256 28.3848H12.7068C11.7684 28.3848 10.9236 28.7712 10.32 29.4192L1.77479 38.2092C1.39356 38.6241 1.18776 39.1705 1.20051 39.7338C1.21326 40.2971 1.44358 40.8336 1.84319 41.2308C2.67359 42.0444 4.00319 42.0168 4.78079 41.1612L11.406 34.3452V43.4508H3.97559C2.60879 43.4508 1.50599 44.5812 1.50599 45.99C1.50599 46.7208 1.77479 47.37 2.25839 47.8392L10.6272 56.448C11.3652 57.5664 12.8136 57.9252 13.968 57.234C15.1872 56.5176 15.5916 54.9312 14.8932 53.6904L10.1184 48.7908L10.212 48.804H23.9196L19.1316 53.7024C18.4476 54.9444 18.8496 56.5308 20.0556 57.2472C21.21 57.9384 22.6728 57.5808 23.4108 56.4624L31.7796 47.8536C32.023 47.6119 32.215 47.3235 32.3441 47.0058C32.4732 46.688 32.5367 46.3474 32.5308 46.0044C32.5308 44.5956 31.4304 43.4664 30.0636 43.4664H22.6452V34.4556L29.1504 41.1744C29.9424 42.0312 31.2552 42.0588 32.0868 41.244C32.4866 40.8471 32.7171 40.3108 32.7298 39.7476C32.7426 39.1844 32.5366 38.6382 32.1552 38.2236L23.6256 29.4192ZM17.0544 27.4872C19.2936 27.4872 21.1044 25.6128 21.1044 23.3064C21.1044 20.988 19.2936 19.1256 17.0544 19.1256C14.8128 19.1256 12.9876 20.988 12.9876 23.3064C12.9876 25.6128 14.814 27.4872 17.0544 27.4872Z" fill="#29C3BE"/>
</svg>
