<svg width="39" height="49" viewBox="0 0 39 49" fill="none" xmlns="http://www.w3.org/2000/svg">
<path fill-rule="evenodd" clip-rule="evenodd" d="M19.5 0C8.71929 0 0 7.5388 0 16.8599C0 29.5049 19.5 48.1712 19.5 48.1712C19.5 48.1712 39 29.5049 39 16.8599C39 7.5388 30.2807 0 19.5 0ZM5.57141 16.8598C5.57141 10.2122 11.8114 4.81702 19.5 4.81702C27.1886 4.81702 33.4286 10.2122 33.4286 16.8598C33.4286 23.7965 25.4057 34.1774 19.5 40.6564C13.7057 34.2255 5.57141 23.7242 5.57141 16.8598ZM12.5357 16.86C12.5357 13.5345 15.6537 10.8386 19.5 10.8386C21.9881 10.8386 24.2872 11.9863 25.5312 13.8493C26.7753 15.7123 26.7753 18.0077 25.5312 19.8707C24.2872 21.7337 21.9881 22.8814 19.5 22.8814C15.6537 22.8814 12.5357 20.1855 12.5357 16.86Z" fill="white"/>
</svg>
