<svg width="31" height="31" viewBox="0 0 31 31" fill="none" xmlns="http://www.w3.org/2000/svg">
<path d="M16.0325 3.91187H7.96724C5.22831 3.91187 3 6.69489 3 10.1155V20.1881C3 23.6089 5.22831 26.3918 7.96724 26.3918H16.0325C18.7717 26.3918 21 23.6087 21 20.1881V10.1155C21.0001 6.69489 18.7717 3.91187 16.0325 3.91187ZM19.4031 20.1881C19.4031 22.5091 17.8911 24.3972 16.0327 24.3972H7.96724C6.10892 24.3974 4.59705 22.5091 4.59705 20.1881V10.1155C4.59705 7.79468 6.10892 5.90639 7.96724 5.90639H16.0325C17.891 5.90639 19.403 7.79468 19.403 10.1155L19.4031 20.1881Z" fill="#F2726F"/>
<path d="M12 9.35957C9.44245 9.35957 7.36182 11.958 7.36182 15.1521C7.36182 18.346 9.44245 20.9443 12 20.9443C14.5575 20.9443 16.6381 18.346 16.6381 15.1521C16.6381 11.958 14.5575 9.35957 12 9.35957ZM12 18.9497C10.3232 18.9497 8.95886 17.2461 8.95886 15.1519C8.95886 13.0577 10.3231 11.354 12 11.354C13.6769 11.354 15.0411 13.0577 15.0411 15.1519C15.0411 17.2461 13.6768 18.9497 12 18.9497Z" fill="#F2726F"/>
<path d="M16.8327 7.66827C16.525 7.66827 16.2227 7.82385 16.0054 8.09643C15.787 8.36769 15.6615 8.74532 15.6615 9.13093C15.6615 9.51534 15.7871 9.89283 16.0054 10.1654C16.2226 10.4367 16.525 10.5936 16.8327 10.5936C17.1414 10.5936 17.4427 10.4367 17.661 10.1654C17.8793 9.89283 18.0038 9.5152 18.0038 9.13093C18.0038 8.74532 17.8793 8.36769 17.661 8.09643C17.4438 7.82385 17.1414 7.66827 16.8327 7.66827Z" fill="#F2726F"/>
</svg>
