<svg width="1440" height="183" viewBox="0 0 1440 183" fill="none" xmlns="http://www.w3.org/2000/svg">
<path d="M0 71.4L34.3 76.0209C68.6 80.9906 137 89.7094 206 89.9709C274.3 89.7094 343 80.9906 411 66.7791C480 53.0906 549 33.9094 617 52.8291C685.7 71.4 754 127.2 823 131.821C891.4 136.791 960 89.7094 1029 57.45C1097.1 25.1906 1166 6.00937 1234 1.65C1302.9 -2.70938 1371 6.00937 1406 10.9791L1440 15.6V183H1405.7C1371.4 183 1303 183 1234 183C1165.7 183 1097 183 1029 183C960 183 891 183 823 183C754.3 183 686 183 617 183C548.6 183 480 183 411 183C342.9 183 274 183 206 183C137.1 183 69 183 34 183H0V71.4Z" fill="white" fill-opacity="0.38"/>
</svg>
