<svg width="16" height="21" viewBox="0 0 16 21" fill="none" xmlns="http://www.w3.org/2000/svg">
<path fill-rule="evenodd" clip-rule="evenodd" d="M8.00004 1.75757C5.42004 1.75757 3.33337 4.36357 3.33337 7.58569C3.33337 11.9568 8.00004 18.4093 8.00004 18.4093C8.00004 18.4093 12.6667 11.9568 12.6667 7.58569C12.6667 4.36357 10.58 1.75757 8.00004 1.75757ZM4.66671 7.58569C4.66671 5.28774 6.16004 3.42274 8.00004 3.42274C9.84004 3.42274 11.3334 5.28774 11.3334 7.58569C11.3334 9.98354 9.41337 13.572 8.00004 15.8117C6.61337 13.5887 4.66671 9.95857 4.66671 7.58569ZM6.33337 7.58568C6.33337 6.43612 7.07957 5.50421 8.00004 5.50421C8.59548 5.50421 9.1457 5.90094 9.44342 6.54495C9.74114 7.18896 9.74114 7.98241 9.44342 8.62642C9.1457 9.27043 8.59548 9.66716 8.00004 9.66716C7.07957 9.66716 6.33337 8.73525 6.33337 7.58568Z" fill="#F2726F"/>
</svg>
